<?xml version="1.0" encoding="utf-8"?>
<!-- Generator: Adobe Illustrator 26.1.0, SVG Export Plug-In . SVG Version: 6.00 Build 0)  -->
<svg version="1.1" id="Layer_1" xmlns="http://www.w3.org/2000/svg" xmlns:xlink="http://www.w3.org/1999/xlink" x="0px" y="0px"
	 viewBox="0 0 100 100" style="enable-background:new 0 0 100 100;" xml:space="preserve">
<style type="text/css">
	.st0{fill-rule:evenodd;clip-rule:evenodd;fill:#010101;fill-opacity:0.1;}
	.st1{fill-rule:evenodd;clip-rule:evenodd;fill:#353635;}
</style>
<g id="Icon-_x2F_-Navigation-Bar-_x2F_-Controller" transform="translate(255.999784, 70.500000)">
	<path id="Fill_00000177473796365991293080000008148244936512100007_" class="st0" d="M-168.5-20.49v-12.44
		c0-8.24-6.72-14.93-15-14.93h-45c-8.28,0-15,6.68-15,14.93v28.6c-0.12,4.98,3.12,9.43,7.91,10.86c5.02,1.32,10.27-1.16,12.42-5.86
		l7.39-13.69h19.55l7.18,13.24c1.44,3.35,4.45,5.78,8.04,6.5c3.1,0.54,6.28-0.31,8.69-2.32c2.41-2.01,3.81-4.98,3.81-8.12
		L-168.5-20.49z"/>
	<path id="Outline_00000136407711462913195090000011371547147172574096_" class="st1" d="M-183.5-50.9
		c9.96,0,18.04,8.04,18.04,17.97l0,0l0.01,29.21c-0.01,4.03-1.8,7.86-4.9,10.45c-3.1,2.59-7.18,3.68-11.24,2.97
		c-4.57-0.91-8.41-4.01-10.12-8.03l0,0l-6.32-11.65h-15.92l-6.44,11.92c-2.66,5.82-9,8.98-15.3,7.69l0,0l-0.76-0.18
		c-6.11-1.82-10.24-7.49-10.08-13.77v-28.6c0-9.93,8.08-17.97,18.04-17.97l0,0H-183.5z M-183.5-44.82h-45
		c-6.61,0-11.96,5.33-11.96,11.89l0,0l0,28.68c-0.09,3.61,2.26,6.83,5.64,7.84c3.6,0.94,7.35-0.83,8.98-4.36l0,0l7.39-13.69
		c0.53-0.98,1.56-1.6,2.68-1.6l0,0h19.55c1.12,0,2.14,0.61,2.67,1.59l0,0l7.3,13.49c1.05,2.43,3.23,4.2,5.77,4.7
		c2.22,0.39,4.5-0.22,6.22-1.66c1.72-1.44,2.72-3.55,2.72-5.78l0,0l-0.01-29.2C-171.54-39.5-176.89-44.82-183.5-44.82L-183.5-44.82z
		 M-188.5-28.09c2.34,0,4.24,1.87,4.29,4.2c0,0.03,0,0.06,0,0.09c0,2.21-1.67,4.03-3.82,4.27l-0.47,0.03l0,0
		c-2.37,0-4.29-1.92-4.29-4.29l0-0.06l0.02-0.41C-192.53-26.42-190.71-28.09-188.5-28.09z M-228.5-35.9c1.54,0,2.81,1.14,3.01,2.63
		l0.03,0.41l0,1.96l1.96,0c1.68,0,3.04,1.36,3.04,3.04c0,1.54-1.14,2.81-2.63,3.01l-0.41,0.03l-1.96,0l0,1.96
		c0,1.68-1.36,3.04-3.04,3.04c-1.54,0-2.81-1.14-3.01-2.63l-0.03-0.41l0-1.96l-1.96,0c-1.68,0-3.04-1.36-3.04-3.04
		c0-1.54,1.14-2.81,2.63-3.01l0.41-0.03l1.96,0l0-1.96C-231.54-34.54-230.18-35.9-228.5-35.9z M-181-35.59
		c2.34,0,4.24,1.87,4.29,4.2c0,0.03,0,0.06,0,0.09c0,2.21-1.67,4.03-3.82,4.27l-0.47,0.03l0,0c-2.37,0-4.29-1.92-4.29-4.29l0-0.06
		l0.02-0.41C-185.03-33.92-183.21-35.59-181-35.59z"/>
</g>
</svg>
