<svg width="24" height="24" viewBox="0 0 24 24" fill="none" xmlns="http://www.w3.org/2000/svg">
  <path fill-rule="evenodd" clip-rule="evenodd" d="M20.9475 19.4939C21.955 19.4939 22.7156 19.2431 23.2294 18.7414C23.7431 18.2398 24 17.4972 24 16.5137V7.47409C24 6.4906 23.7431 5.74802 23.2294 5.24637C22.7156 4.74472 21.955 4.4939 20.9475 4.4939H3.05254C2.03837 4.4939 1.27606 4.74472 0.765638 5.24637C0.255213 5.74802 0 6.4906 0 7.47409V16.5137C0 17.4972 0.255213 18.2398 0.765638 18.7414C1.27606 19.2431 2.03837 19.4939 3.05254 19.4939H20.9475Z" fill="black" fill-opacity="0.1"/>
  <path fill-rule="evenodd" clip-rule="evenodd" d="M20.9475 19.4939C21.955 19.4939 22.7156 19.2431 23.2294 18.7414C23.7431 18.2398 24 17.4972 24 16.5137V7.47409C24 6.4906 23.7431 5.74802 23.2294 5.24637C22.7156 4.74472 21.955 4.4939 20.9475 4.4939H3.05254C2.03837 4.4939 1.27606 4.74472 0.765638 5.24637C0.255213 5.74802 0 6.4906 0 7.47409V16.5137C0 17.4972 0.255213 18.2398 0.765638 18.7414C1.27606 19.2431 2.03837 19.4939 3.05254 19.4939H20.9475ZM20.8674 17.8008H3.12261C2.67557 17.8008 2.33028 17.682 2.08675 17.4444C1.84321 17.2068 1.72144 16.8536 1.72144 16.385V7.60281C1.72144 7.13416 1.84321 6.78268 2.08675 6.54835C2.33028 6.31403 2.67557 6.19687 3.12261 6.19687H20.8674C21.3211 6.19687 21.6681 6.31403 21.9083 6.54835C22.1485 6.78268 22.2686 7.13416 22.2686 7.60281V16.385C22.2686 16.8536 22.1485 17.2068 21.9083 17.4444C21.6681 17.682 21.3211 17.8008 20.8674 17.8008ZM4.87407 9.85033C5.16765 9.85033 5.31444 9.70842 5.31444 9.42459V8.5632C5.31444 8.27937 5.16765 8.13746 4.87407 8.13746H4.01336C3.71978 8.13746 3.57299 8.27937 3.57299 8.5632V9.42459C3.57299 9.70842 3.71978 9.85033 4.01336 9.85033H4.87407ZM7.8966 9.85033C8.1835 9.85033 8.32696 9.70842 8.32696 9.42459V8.5632C8.32696 8.27937 8.1835 8.13746 7.8966 8.13746H7.02587C6.73897 8.13746 6.59551 8.27937 6.59551 8.5632V9.42459C6.59551 9.70842 6.73897 9.85033 7.02587 9.85033H7.8966ZM10.9091 9.85033C11.196 9.85033 11.3394 9.70842 11.3394 9.42459V8.5632C11.3394 8.27937 11.196 8.13746 10.9091 8.13746H10.0383C9.75144 8.13746 9.60799 8.27937 9.60799 8.5632V9.42459C9.60799 9.70842 9.75144 9.85033 10.0383 9.85033H10.9091ZM13.9216 9.85033C14.2085 9.85033 14.352 9.70842 14.352 9.42459V8.5632C14.352 8.27937 14.2085 8.13746 13.9216 8.13746H13.0609C12.7673 8.13746 12.6205 8.27937 12.6205 8.5632V9.42459C12.6205 9.70842 12.7673 9.85033 13.0609 9.85033H13.9216ZM16.9341 9.85033C17.2277 9.85033 17.3745 9.70842 17.3745 9.42459V8.5632C17.3745 8.27937 17.2277 8.13746 16.9341 8.13746H16.0834C15.7832 8.13746 15.633 8.27937 15.633 8.5632V9.42459C15.633 9.70842 15.7832 9.85033 16.0834 9.85033H16.9341ZM19.9566 9.85033C20.2436 9.85033 20.387 9.70842 20.387 9.42459V8.5632C20.387 8.27937 20.2436 8.13746 19.9566 8.13746H19.0859C18.799 8.13746 18.6556 8.27937 18.6556 8.5632V9.42459C18.6556 9.70842 18.799 9.85033 19.0859 9.85033H19.9566ZM4.87407 12.8404C5.16765 12.8404 5.31444 12.6985 5.31444 12.4147V11.5533C5.31444 11.2695 5.16765 11.1276 4.87407 11.1276H4.01336C3.71978 11.1276 3.57299 11.2695 3.57299 11.5533V12.4147C3.57299 12.6985 3.71978 12.8404 4.01336 12.8404H4.87407ZM7.8966 12.8404C8.1835 12.8404 8.32696 12.6985 8.32696 12.4147V11.5533C8.32696 11.2695 8.1835 11.1276 7.8966 11.1276H7.02587C6.73897 11.1276 6.59551 11.2695 6.59551 11.5533V12.4147C6.59551 12.6985 6.73897 12.8404 7.02587 12.8404H7.8966ZM10.9091 12.8404C11.196 12.8404 11.3394 12.6985 11.3394 12.4147V11.5533C11.3394 11.2695 11.196 11.1276 10.9091 11.1276H10.0383C9.75144 11.1276 9.60799 11.2695 9.60799 11.5533V12.4147C9.60799 12.6985 9.75144 12.8404 10.0383 12.8404H10.9091ZM13.9216 12.8404C14.2085 12.8404 14.352 12.6985 14.352 12.4147V11.5533C14.352 11.2695 14.2085 11.1276 13.9216 11.1276H13.0609C12.7673 11.1276 12.6205 11.2695 12.6205 11.5533V12.4147C12.6205 12.6985 12.7673 12.8404 13.0609 12.8404H13.9216ZM16.9341 12.8404C17.2277 12.8404 17.3745 12.6985 17.3745 12.4147V11.5533C17.3745 11.2695 17.2277 11.1276 16.9341 11.1276H16.0834C15.7832 11.1276 15.633 11.2695 15.633 11.5533V12.4147C15.633 12.6985 15.7832 12.8404 16.0834 12.8404H16.9341ZM19.9566 12.8404C20.2436 12.8404 20.387 12.6985 20.387 12.4147V11.5533C20.387 11.2695 20.2436 11.1276 19.9566 11.1276H19.0859C18.799 11.1276 18.6556 11.2695 18.6556 11.5533V12.4147C18.6556 12.6985 18.799 12.8404 19.0859 12.8404H19.9566ZM4.87407 15.8503C5.16765 15.8503 5.31444 15.7018 5.31444 15.4048V14.5533C5.31444 14.2629 5.16765 14.1177 4.87407 14.1177H4.01336C3.71978 14.1177 3.57299 14.2629 3.57299 14.5533V15.4048C3.57299 15.7018 3.71978 15.8503 4.01336 15.8503H4.87407ZM16.8541 15.8503C17.201 15.8503 17.3745 15.6754 17.3745 15.3256V14.6325C17.3745 14.2893 17.201 14.1177 16.8541 14.1177H7.10594C6.76566 14.1177 6.59551 14.2893 6.59551 14.6325V15.3256C6.59551 15.6754 6.76566 15.8503 7.10594 15.8503H16.8541ZM19.9566 15.8503C20.2436 15.8503 20.387 15.7018 20.387 15.4048V14.5533C20.387 14.2629 20.2436 14.1177 19.9566 14.1177H19.0859C18.799 14.1177 18.6556 14.2629 18.6556 14.5533V15.4048C18.6556 15.7018 18.799 15.8503 19.0859 15.8503H19.9566Z" fill="#353535"/>
</svg>
