<svg width="24" height="24" viewBox="0 0 24 24" fill="none" xmlns="http://www.w3.org/2000/svg">
  <path d="M22.3052 8.30492C21.7897 6.92627 20.8532 5.73564 19.6225 4.89414C18.3917 4.05264 16.9261 3.60092 15.4239 3.6001H8.53369C7.19515 3.59937 5.88204 3.95676 4.73662 4.63353C3.59121 5.3103 2.65724 6.2806 2.03615 7.43918C1.41505 8.59777 1.13045 9.90041 1.21326 11.2058C1.29607 12.5112 1.74315 13.7695 2.50593 14.8443C2.7018 15.1249 2.92113 15.3891 3.16169 15.6343C3.84596 16.3654 4.67872 16.949 5.60677 17.348C6.53482 17.747 7.53777 17.9526 8.55168 17.9516H8.8392V20.7166C8.83802 20.8931 8.89129 21.0659 8.99218 21.2124C9.09307 21.3589 9.23688 21.4722 9.40472 21.5376C9.57256 21.6031 9.75669 21.6175 9.93306 21.5791C10.1094 21.5406 10.2698 21.4511 10.3933 21.3222L13.6632 17.9516H15.4599C16.4738 17.9526 17.4768 17.747 18.4048 17.348C19.3328 16.949 20.1656 16.3654 20.8499 15.6343C21.0877 15.3868 21.3069 15.1228 21.5056 14.8443C22.352 13.6507 22.8034 12.2323 22.7992 10.7802C22.7887 9.93276 22.6214 9.09413 22.3052 8.30492Z" fill="black" fill-opacity="0.1" stroke="#353535" stroke-width="1.5"/>
  <path d="M9.24363 11.4649H8.56988C8.45076 11.4649 8.33655 11.5111 8.25231 11.5934C8.16808 11.6757 8.12072 11.7874 8.12072 11.9038V12.5621C8.12072 12.7367 8.04979 12.9042 7.92344 13.0276C7.79709 13.1511 7.62566 13.2204 7.44697 13.2204C7.26828 13.2204 7.09696 13.1511 6.97061 13.0276C6.84426 12.9042 6.77322 12.7367 6.77322 12.5621V11.9038C6.77092 11.7881 6.72285 11.6777 6.63911 11.5959C6.55537 11.5141 6.44246 11.4671 6.32406 11.4649H5.65031C5.47162 11.4649 5.3003 11.3955 5.17395 11.2721C5.0476 11.1486 4.97656 10.9812 4.97656 10.8066C4.97656 10.632 5.0476 10.4645 5.17395 10.3411C5.3003 10.2176 5.47162 10.1482 5.65031 10.1482H6.32406C6.44318 10.1482 6.5574 10.102 6.64163 10.0197C6.72587 9.93738 6.77322 9.82575 6.77322 9.70935V9.05103C6.77322 8.87643 6.84426 8.70898 6.97061 8.58552C7.09696 8.46206 7.26828 8.3927 7.44697 8.3927C7.62566 8.3927 7.79709 8.46206 7.92344 8.58552C8.04979 8.70898 8.12072 8.87643 8.12072 9.05103V9.70935C8.12072 9.82575 8.16808 9.93738 8.25231 10.0197C8.33655 10.102 8.45076 10.1482 8.56988 10.1482H9.24363C9.42232 10.1482 9.59375 10.2176 9.7201 10.3411C9.84646 10.4645 9.91738 10.632 9.91738 10.8066C9.91738 10.9812 9.84646 11.1486 9.7201 11.2721C9.59375 11.3955 9.42232 11.4649 9.24363 11.4649ZM14.1845 11.6843C13.9462 11.6843 13.7177 11.5918 13.5492 11.4272C13.3807 11.2626 13.2861 11.0394 13.2861 10.8066C13.2861 10.5738 13.3807 10.3505 13.5492 10.1859C13.7177 10.0213 13.9462 9.9288 14.1845 9.9288C14.4227 9.9288 14.6512 10.0213 14.8197 10.1859C14.9882 10.3505 15.0828 10.5738 15.0828 10.8066C15.0828 11.0394 14.9882 11.2626 14.8197 11.4272C14.6512 11.5918 14.4227 11.6843 14.1845 11.6843ZM16.6549 13.8788C16.4166 13.8788 16.1881 13.7863 16.0196 13.6216C15.8511 13.457 15.7565 13.2338 15.7565 13.001C15.7565 12.7682 15.8511 12.5449 16.0196 12.3803C16.1881 12.2157 16.4166 12.1232 16.6549 12.1232C16.8931 12.1232 17.1216 12.2157 17.2901 12.3803C17.4586 12.5449 17.5532 12.7682 17.5532 13.001C17.5532 13.2338 17.4586 13.457 17.2901 13.6216C17.1216 13.7863 16.8931 13.8788 16.6549 13.8788ZM16.6549 9.48991C16.4166 9.48991 16.1881 9.39742 16.0196 9.23281C15.8511 9.06819 15.7565 8.84494 15.7565 8.61214C15.7565 8.37934 15.8511 8.15607 16.0196 7.99145C16.1881 7.82684 16.4166 7.73438 16.6549 7.73438C16.8931 7.73438 17.1216 7.82684 17.2901 7.99145C17.4586 8.15607 17.5532 8.37934 17.5532 8.61214C17.5532 8.84494 17.4586 9.06819 17.2901 9.23281C17.1216 9.39742 16.8931 9.48991 16.6549 9.48991ZM19.1253 11.6843C18.887 11.6843 18.6585 11.5918 18.49 11.4272C18.3215 11.2626 18.2269 11.0394 18.2269 10.8066C18.2269 10.5738 18.3215 10.3505 18.49 10.1859C18.6585 10.0213 18.887 9.9288 19.1253 9.9288C19.3635 9.9288 19.5921 10.0213 19.7605 10.1859C19.929 10.3505 20.0236 10.5738 20.0236 10.8066C20.0236 11.0394 19.929 11.2626 19.7605 11.4272C19.5921 11.5918 19.3635 11.6843 19.1253 11.6843Z" fill="#353535" stroke="#353535" stroke-width="0.5"/>
</svg>
