<?xml version="1.0" encoding="UTF-8"?>
<svg width="20px" height="13px" viewBox="0 0 20 13" version="1.1" xmlns="http://www.w3.org/2000/svg" xmlns:xlink="http://www.w3.org/1999/xlink">
    <title>Icon / Navigation Bar / Earbuds</title>
    <g id="Particles" stroke="none" stroke-width="1" fill="none" fill-rule="evenodd">
        <g id="Product-Icons-Web" transform="translate(-448.000000, -72.000000)">
            <g id="Icon-/-Navigation-Bar-/-Earbuds" transform="translate(448.250000, 71.750000)">
                <path d="M15.2307776,5.25956279 C15.2472296,5.52349173 15.0244483,5.75001612 14.7316793,5.76704691 L13.7249327,5.76704691 C12.2647688,5.68889489 11.1457891,4.56733836 11.2144787,3.25081162 C11.1328119,1.93188432 12.2459228,0.800015852 13.7089017,0.714353992 L14.7113734,0.714353992 C15.0040908,0.729376564 15.2287079,0.954109185 15.2147466,1.21798624 L15.2307776,5.25956279 Z M4.27775713,5.25956279 C4.26132186,5.52349173 4.48387727,5.75001612 4.77634953,5.76704691 L5.78207553,5.76704691 C7.24376609,5.69092359 8.3646252,4.56696605 8.29425523,3.24792271 C8.37395114,1.92868399 7.25997018,0.798010593 5.79809027,0.714353992 L4.79663488,0.714353992 C4.50421414,0.729376564 4.27982477,0.954109185 4.29377188,1.21798624 L4.27775713,5.25956279 Z" id="Fill" fill-opacity="0.1" fill="#000000"></path>
                <path d="M5.7915377,0.250809244 C7.51080622,0.348744963 8.84189403,1.69359855 8.74528212,3.23181536 C8.83075384,4.82660343 7.49184446,6.16307262 5.74717238,6.2528463 L5.74717238,6.2528463 L4.7178588,6.25200845 C4.16163795,6.21976761 3.71738691,5.76966228 3.7508541,5.24837835 L3.7508541,5.24837835 L2.749,5.2436525 L2.7492376,8.78939896 C2.82102953,10.0879451 3.41753164,11.3015409 4.40180752,12.1515864 C4.61079957,12.3320772 4.6339044,12.6478155 4.45341359,12.8568075 C4.27292278,13.0657996 3.95718454,13.0889044 3.74819248,12.9084136 C2.62849772,11.941417 1.92397901,10.5851795 1.77198954,9.09743105 L1.75,8.817 L1.74932428,5.23567357 C1.11804514,5.18676007 0.551798698,4.80641485 0.241881807,4.22312871 C-0.0830081956,3.61166208 -0.0804647903,2.86429395 0.248636292,2.25530333 C0.584309464,1.63415127 1.2114663,1.24731704 1.89503313,1.24998973 L1.89503313,1.24998973 L3.768,1.2566525 L3.7683848,1.15900703 C3.80009711,0.701620246 4.16263506,0.33714454 4.62413232,0.263020308 L4.7414341,0.250652498 Z M5.763102,1.25 L4.76696981,1.25 L4.749,5.252 L5.72128677,5.25351681 C6.91034228,5.1918753 7.80123535,4.30260589 7.7469169,3.22828582 C7.80864789,2.21110185 6.92361645,1.31691763 5.763102,1.25 L5.763102,1.25 Z M1.89116231,2.24999005 C1.58299431,2.24878496 1.29176178,2.428419 1.12839298,2.73072753 C0.958449838,3.04520167 0.957113077,3.43800273 1.12496859,3.75391902 C1.28639547,4.05773615 1.57663394,4.23981293 1.88485212,4.24103057 L1.88485212,4.24103057 L3.741,4.248 L3.748,2.256 Z M14.7578719,0.250652498 C15.2739506,0.277043805 15.6965662,0.663504681 15.7309212,1.15900703 L15.73,1.2566525 L17.6049669,1.24998973 C18.2885338,1.24731704 18.9156906,1.63415127 19.2513638,2.25530333 C19.5804649,2.86429395 19.5830083,3.61166208 19.2581183,4.22312871 C18.9482014,4.80641485 18.3819549,5.18676007 17.7506758,5.23567357 L17.7500082,8.817 L17.7280187,9.09743105 C17.5760292,10.5851795 16.8715105,11.941417 15.7518157,12.9084136 C15.5428237,13.0889044 15.2270854,13.0657996 15.0465946,12.8568075 C14.8661038,12.6478155 14.8892086,12.3320772 15.0982007,12.1515864 C16.0824766,11.3015409 16.6789787,10.0879451 16.7507706,8.78939896 L16.7507706,8.78939896 L16.75,5.2436525 L15.7484519,5.24837835 C15.7819191,5.76966228 15.3376681,6.21976761 14.7814472,6.25200845 L13.7521337,6.2528463 C12.0074616,6.16307262 10.6685522,4.82660343 10.7540239,3.23181536 C10.657412,1.69359855 11.9884998,0.348744963 13.7077683,0.250809244 L14.7578719,0.250652498 Z M14.7323362,1.25 L13.736204,1.25 C12.5756896,1.31691763 11.6906581,2.21110185 11.7523891,3.22828582 C11.6980707,4.30260589 12.5889638,5.1918753 13.7780193,5.25351681 L14.750306,5.252 L14.7323362,1.25 Z M17.6088378,2.24999005 L15.7520001,2.256 L15.7590001,4.248 L17.6151479,4.24103057 C17.9233661,4.23981293 18.2136046,4.05773615 18.3750315,3.75391902 C18.542887,3.43800273 18.5415502,3.04520167 18.3716071,2.73072753 C18.2082383,2.428419 17.9170058,2.24878496 17.6088378,2.24999005 Z" id="Outline" fill="#353535"></path>
            </g>
        </g>
    </g>
</svg>