<?xml version="1.0" encoding="UTF-8"?>
<svg width="14px" height="20px" viewBox="0 0 14 20" version="1.1" xmlns="http://www.w3.org/2000/svg" xmlns:xlink="http://www.w3.org/1999/xlink">
    <title>Icon / Navigation Bar / Microphone</title>
    <g id="Particles" stroke="none" stroke-width="1" fill="none" fill-rule="evenodd">
        <g id="Product-Icons-Web" transform="translate(-115.000000, -68.000000)">
            <g id="Icon-/-Navigation-Bar-/-Microphone" transform="translate(115.000000, 67.999396)">
                <rect id="Fill" fill-opacity="0.1" fill="#000000" x="3.50136539" y="0.750604046" width="6.99726923" height="13.25" rx="2"></rect>
                <path d="M13.4962654,11.000604 C13.7417253,11.000604 13.9458737,11.1774792 13.9882097,11.4107284 L13.9962654,11.500604 L13.9962654,13.500604 C13.9962654,15.9148774 12.0950288,17.8850931 9.70810107,17.9957061 L9.49626536,18.000604 L7.5,18 L7.5,19.004 L9.5,19.0040615 C9.77614237,19.0040615 10,19.2279191 10,19.5040615 C10,19.7495214 9.82312484,19.9536699 9.58987563,19.9960058 L9.5,20.0040615 L4.5,20.0040615 C4.22385763,20.0040615 4,19.7802039 4,19.5040615 C4,19.2586016 4.17687516,19.0544531 4.41012437,19.0121172 L4.5,19.0040615 L6.5,19.004 L6.5,18 L4.5,18.000604 C2.08572667,18.000604 0.115510911,16.0993675 0.0048979895,13.7124397 L0,13.500604 L0,11.500604 C0,11.2244617 0.223857625,11.000604 0.5,11.000604 C0.745459889,11.000604 0.94960837,11.1774792 0.991944331,11.4107284 L1,11.500604 L1,13.500604 C1,15.3691674 2.4642776,16.8957305 4.3079648,16.9954252 L4.5,17.000604 L9.49626536,17.000604 C11.3648288,17.000604 12.8913918,15.5363264 12.9910865,13.6926392 L12.9962654,13.500604 L12.9962654,11.500604 C12.9962654,11.2244617 13.220123,11.000604 13.4962654,11.000604 Z M8.49863461,0 C9.82411801,0 10.9086733,1.03153594 10.9933169,2.33562431 L10.9986346,2.5 L10.9986346,12.500604 C10.9986346,13.8260874 9.96709868,14.9106427 8.6630103,14.9952864 L8.49863461,15.000604 L5.50136539,15.000604 C4.17588199,15.000604 3.09132672,13.9690681 3.00668307,12.6649797 L3.00136539,12.500604 L3.00136539,2.5 C3.00136539,1.1745166 4.03290132,0.089961328 5.3369897,0.00531767968 L5.50136539,0 L8.49863461,0 Z M8.49863461,1 L5.50136539,1 C4.72166927,1 4.08091671,1.59488808 4.00823197,2.35553999 L4.00136539,2.5 L4.00136539,12.500604 C4.00136539,13.2803002 4.59625347,13.9210527 5.35690538,13.9937375 L5.50136539,14.000604 L8.49863461,14.000604 C9.27833073,14.000604 9.91908329,13.405716 9.99176803,12.6450641 L9.99863461,12.500604 L9.99863461,2.5 C9.99863461,1.67157288 9.32706174,1 8.49863461,1 Z" id="Outline" fill="#353535"></path>
            </g>
        </g>
    </g>
</svg>