<?xml version="1.0" encoding="UTF-8"?>
<svg width="12px" height="18px" viewBox="0 0 12 18" version="1.1" xmlns="http://www.w3.org/2000/svg" xmlns:xlink="http://www.w3.org/1999/xlink">
    <title>Icon / Navigation Bar / Mouse</title>
    <g id="Particles" stroke="none" stroke-width="1" fill="none" fill-rule="evenodd">
        <g id="Product-Icons-Web" transform="translate(-164.000000, -69.000000)">
            <g id="Icon-/-Navigation-Bar-/-Mouse" transform="translate(164.000000, 69.000000)">
                <g id="Group" stroke="#FFFFFF">
                    <line x1="6" y1="0.75" x2="6" y2="5" id="Line" stroke-linecap="round"></line>
                    <path d="M9.5,0.5 C10.0522847,0.5 10.5522847,0.723857625 10.9142136,1.08578644 C11.2761424,1.44771525 11.5,1.94771525 11.5,2.5 L11.5,2.5 L11.5,12 C11.5,13.5187831 10.8843915,14.8937831 9.8890873,15.8890873 C8.89378306,16.8843915 7.51878306,17.5 6,17.5 C4.48121694,17.5 3.10621694,16.8843915 2.1109127,15.8890873 C1.11560847,14.8937831 0.5,13.5187831 0.5,12 L0.5,12 L0.5,2.5 C0.5,1.94771525 0.723857625,1.44771525 1.08578644,1.08578644 C1.44771525,0.723857625 1.94771525,0.5 2.5,0.5 L2.5,0.5 Z" id="Rectangle"></path>
                </g>
                <path d="M9.18072646,0.5 C5.93853044,0.5 3.81112677,0.5 2.79851543,0.5 C1.27959843,0.5 0.50473195,1.51619419 0.50473195,3.01840871 C0.50473195,4.01988506 0.50473195,7.03374882 0.50473195,12.06 C0.50473195,15.064429 2.96738298,17.5 6.00521698,17.5 C9.04305097,17.5 11.505702,15.064429 11.505702,12.06 L11.505702,3.01840871 C11.505702,1.51619419 10.6996435,0.5 9.18072646,0.5 Z" id="Fill" fill-opacity="0.1" fill="#000000"></path>
                <path d="M9.5,0 C10.8807119,0 12,1.11928813 12,2.5 L12,12 C12,15.3137085 9.3137085,18 6,18 C2.6862915,18 0,15.3137085 0,12 L0,2.5 C0,1.11928813 1.11928813,0 2.5,0 L9.5,0 Z M9.5,1 L6.5,1 L6.5,5 C6.5,5.27614237 6.27614237,5.5 6,5.5 C5.75454011,5.5 5.55039163,5.32312484 5.50805567,5.08987563 L5.5,5 L5.5,1 L2.5,1 C1.72030388,1 1.07955132,1.59488808 1.00686658,2.35553999 L1,2.5 L1,12 C1,14.7614237 3.23857625,17 6,17 C8.6887547,17 10.8818181,14.8776933 10.9953805,12.2168896 L11,12 L11,2.5 C11,1.72030388 10.4051119,1.07955132 9.64446001,1.00686658 L9.5,1 Z" id="Outline" fill="#353535"></path>
            </g>
        </g>
    </g>
</svg>