<?xml version="1.0" encoding="UTF-8"?>
<svg width="21px" height="18px" viewBox="0 0 21 18" version="1.1" xmlns="http://www.w3.org/2000/svg" xmlns:xlink="http://www.w3.org/1999/xlink">
    <title>Icon / Navigation Bar / Mousepad</title>
    <g id="Particles" stroke="none" stroke-width="1" fill="none" fill-rule="evenodd">
        <g id="Product-Icons-Web" transform="translate(-207.000000, -70.000000)">
            <g id="Icon-/-Navigation-Bar-/-Mousepad" transform="translate(207.995641, 70.001206)">
                <g id="Group" transform="translate(0.500000, 0.500000)" stroke="#FFFFFF">
                    <path d="M17.495798,0 C18.3242251,-1.52179594e-16 18.995798,0.671572875 18.995798,1.5 L18.995798,11.5037562 C18.995798,12.3321834 18.3242251,13.0037562 17.495798,13.0037562 L17.0056624,13.0037562 L17.0056624,8.99969026 C17.0056624,8.44740551 16.5579472,7.99969026 16.0056624,7.99969026 L16.0056624,7.99969026 L12.005404,7.99969026 C11.4531192,7.99969026 11.005404,8.44740551 11.005404,8.99969026 L11.005404,8.99969026 L11.005404,13.0037562 L1.5,13.0037562 C0.671572875,13.0037562 3.23497668e-16,12.3321834 0,11.5037562 L0,1.5 C-3.23497668e-16,0.671572875 0.671572875,-6.98650109e-17 1.5,0 L17.495798,0 Z" id="Fill"></path>
                    <path d="M12.0043595,7.99879386 L16.0009884,7.99879386 C16.5532732,7.99879386 17.0009884,8.44650911 17.0009884,8.99879386 L17.0009884,13.5004794 C17.0009884,15.1564027 15.6585973,16.4987939 14.0026739,16.4987939 C12.3467506,16.4987939 11.0043595,15.1564027 11.0043595,13.5004794 L11.0043595,8.99879386 C11.0043595,8.44650911 11.4520747,7.99879386 12.0043595,7.99879386 Z" id="Rectangle"></path>
                    <line x1="13.9951003" y1="7.99879386" x2="13.9951003" y2="10.9990946" id="Line" stroke-linecap="round"></line>
                </g>
                <path d="M17.995798,0.5 C18.8242251,0.5 19.495798,1.17157288 19.495798,2 L19.495798,11.9968563 C19.495798,12.8252835 18.8242251,13.4968563 17.995798,13.4968563 L17.457501,13.4968563 L17.457501,9.74922154 C17.457501,9.0588656 16.8978569,8.49922154 16.207501,8.49922154 L16.207501,8.49922154 L12.7074312,8.49922154 C12.0170752,8.49922154 11.4574312,9.0588656 11.4574312,9.74922154 L11.4574312,9.74922154 L11.4574312,13.4968563 L2,13.4968563 C1.17157288,13.4968563 0.5,12.8252835 0.5,11.9968563 L0.5,2 C0.5,1.17157288 1.17157288,0.5 2,0.5 L17.995798,0.5 Z" id="Fill" fill-opacity="0.1" fill="#000000"></path>
                <path d="M17.995798,0 C19.1003675,0 19.995798,0.8954305 19.995798,2 L19.995798,2 L19.995798,12.0037562 C19.995798,13.1083257 19.1003675,14.0037562 17.995798,14.0037562 C17.9993568,15.9341762 16.4337334,17.4987939 14.5026739,17.4987939 C12.5706082,17.4987939 11.0043595,15.9325451 11.0043595,14.0004794 L11.004,14.003 L2,14.0037562 C0.945638205,14.0037562 0.0818348781,13.1878784 0.00548573643,12.1530186 L0,12.0037562 L0,2 C0,0.8954305 0.8954305,0 2,0 L2,0 Z M16.5056624,8.99969026 L14.995,8.999 L14.9951003,11.4990946 C14.9951003,11.7752369 14.7712427,11.9990946 14.4951003,11.9990946 C14.2496404,11.9990946 14.0454919,11.8222194 14.003156,11.5889702 L13.9951003,11.4990946 L13.995,8.999 L12.505404,8.99969026 C12.4116186,8.99969026 12.3234189,9.02568719 12.2481086,9.06958899 C12.1024151,9.15617417 12.0043595,9.31603296 12.0043595,9.49879386 L12.009,9.446 L12.005404,9.49969026 L12.005404,14.0037562 C12.0059965,15.3818966 13.1239026,16.4987939 14.5026739,16.4987939 C15.8824549,16.4987939 17.0009884,15.3802604 17.0009884,14.0004794 L17.0009884,14.0004794 L17.0009884,9.49879386 C17.0009884,9.22265148 16.7771308,8.99879386 16.5009884,8.99879386 L16.532,9.001 L16.5056624,8.99969026 Z M17.995798,1 L2,1 C1.44771525,1 1,1.44771525 1,2 L1,2 L1,12.0037562 C1,12.556041 1.44771525,13.0037562 2,13.0037562 L2,13.0037562 L11.004,13.002 L11.0043595,9.49879386 C11.0043595,8.71909774 11.5992476,8.07834518 12.3598995,8.00566043 L12.5043595,7.99879386 L16.5009884,7.99879386 C16.5580141,7.99879386 16.6142965,8.00197604 16.6696678,8.00817251 L16.6799699,8.00975686 C16.691816,8.01113276 16.7036175,8.01264529 16.715373,8.01429279 C16.7462884,8.01840961 16.777496,8.02388775 16.8083558,8.03031413 C16.8279053,8.0343237 16.8466135,8.03854282 16.8651802,8.04310511 C16.8877449,8.04893075 16.9106274,8.05521696 16.9332843,8.06202446 C16.9641626,8.07071798 16.994399,8.08076192 17.024178,8.09171845 C17.0364966,8.09713793 17.0493995,8.10213967 17.0622145,8.10731331 C17.0920249,8.11823207 17.1205162,8.13068456 17.1485187,8.14397513 C17.160351,8.15103529 17.1729165,8.15726796 17.1853807,8.16367004 C17.6750218,8.41157376 18.0056624,8.9197622 18.0056624,9.49969026 L18.0056624,9.49969026 L18.0053595,13.0017939 L18.1124191,12.9970285 C18.5715009,12.9437069 18.9357486,12.5794592 18.9890702,12.1203774 L18.9890702,12.1203774 L18.995798,12.0037562 L18.995798,2 C18.995798,1.44771525 18.5480827,1 17.995798,1 L17.995798,1 Z" id="Outline" fill="#353535"></path>
            </g>
        </g>
    </g>
</svg>