<?xml version="1.0" encoding="utf-8"?>
<!-- Generator: Adobe Illustrator 26.3.1, SVG Export Plug-In . SVG Version: 6.00 Build 0)  -->
<svg version="1.1" id="Layer_1" xmlns="http://www.w3.org/2000/svg" xmlns:xlink="http://www.w3.org/1999/xlink" x="0px" y="0px"
	 viewBox="0 0 24 25" style="enable-background:new 0 0 24 25;" xml:space="preserve">
<style type="text/css">
	.st0{fill-rule:evenodd;clip-rule:evenodd;fill-opacity:0;}
	.st1{fill-rule:evenodd;clip-rule:evenodd;fill:#353535;}
</style>
<g id="Icon-_x2F_-Navigation-Bar-_x2F_-Glasses-Copy" transform="translate(592.000000, 69.000000)">
	
		<rect id="Fill_00000042736374766208640960000001011075652182508168_" x="-588.18" y="-63.99" class="st0" width="16.35" height="10.9"/>
	<path id="Outline_00000172415621697501410630000003416742097080821927_" class="st1" d="M-571.83-64.9c0.5,0,0.91,0.41,0.91,0.91
		v11.81c0,0.5-0.41,0.91-0.91,0.91h-7.72v2.27h4.54c0.25,0,0.45,0.2,0.45,0.45s-0.2,0.45-0.45,0.45H-585c-0.25,0-0.45-0.2-0.45-0.45
		s0.2-0.45,0.45-0.45h4.54v-2.27h-7.72c-0.5,0-0.91-0.41-0.91-0.91v-11.81c0-0.5,0.41-0.91,0.91-0.91H-571.83z M-572.29-63.99
		h-15.44c-0.25,0-0.45,0.2-0.45,0.45l0,0v9.99c0,0.25,0.2,0.45,0.45,0.45l0,0h15.44c0.25,0,0.45-0.2,0.45-0.45l0,0v-9.99
		C-571.83-63.79-572.04-63.99-572.29-63.99L-572.29-63.99z"/>
</g>
</svg>
