<?xml version="1.0" encoding="UTF-8"?>
<svg width="20px" height="20px" viewBox="0 0 20 20" version="1.1" xmlns="http://www.w3.org/2000/svg" xmlns:xlink="http://www.w3.org/1999/xlink">
    <title>Icon / Navigation Bar / Accessories</title>
    <g id="Particles" stroke="none" stroke-width="1" fill="none" fill-rule="evenodd">
        <g id="Product-Icons-Web" transform="translate(-400.000000, -68.000000)">
            <g id="Icon-/-Navigation-Bar-/-Accessories" transform="translate(400.250000, 68.250000)">
                <path d="M6.66745189,4.20047113 L0.5,4.20047113 L0.5,7.90094227 C0.5,8.58218019 1.05225245,9.13443265 1.73349038,9.13443265 L5.43396151,9.13443265 C6.11519944,9.13443265 6.66745189,8.58218019 6.66745189,7.90094227 L6.66745189,4.20047113 Z M19.0023557,5.43396151 L14.0683942,5.43396151 L14.0683942,7.90094227 C14.0683942,8.58218019 14.6206466,9.13443265 15.3018845,9.13443265 L17.7688653,9.13443265 C18.4501032,9.13443265 19.0023557,8.58218019 19.0023557,7.90094227 L19.0023557,5.43396151 Z" id="Fill" fill-opacity="0.1" fill="#000000"></path>
                <path d="M5.43396151,0 C5.6794214,0 5.88356988,0.176875161 5.92590584,0.410124368 L5.93396151,0.5 L5.933,3.7 L6.66745189,3.70047113 C6.91291178,3.70047113 7.11706026,3.8773463 7.15939622,4.1105955 L7.16745189,4.20047113 L7.16745189,7.90094227 C7.16745189,8.80793413 6.47088772,9.55223472 5.5835337,9.6280697 L5.43396151,9.63443265 L4.083,9.634 L4.08372595,12.5265312 C4.08372595,13.7405352 4.445734,14.8699877 5.06769041,15.8128291 C4.97990057,15.4509808 4.93396151,15.0734249 4.93396151,14.6851393 C4.93396151,12.0246642 7.09070272,9.86792303 9.75117784,9.86792303 C12.4116529,9.86792303 14.5683942,12.0246642 14.5683942,14.6851393 C14.5683942,15.5546463 14.3380243,16.3703475 13.9349898,17.0745375 C15.1672541,16.0247812 15.9674491,14.4817206 16.0312531,12.7505631 L16.0353749,12.5265312 L16.035,9.634 L15.3018845,9.63443265 C14.3948927,9.63443265 13.6505921,8.93786848 13.5747571,8.05051446 L13.5683942,7.90094227 L13.5683942,5.43396151 C13.5683942,5.18850162 13.7452693,4.98435314 13.9785185,4.94201718 L14.0683942,4.93396151 L14.801,4.933 L14.8018845,2.96698076 C14.8018845,2.72152087 14.9787597,2.51737239 15.2120089,2.47503643 L15.3018845,2.46698076 L17.7688653,2.46698076 C18.0143252,2.46698076 18.2184737,2.64385592 18.2608096,2.87710512 L18.2688653,2.96698076 L18.268,4.933 L19.0023557,4.93396151 C19.2478156,4.93396151 19.451964,5.11083667 19.4943,5.34408588 L19.5023557,5.43396151 L19.5023557,7.90094227 C19.5023557,8.80793413 18.8057915,9.55223472 17.9184375,9.6280697 L17.7688653,9.63443265 L17.035,9.634 L17.0353749,12.5265312 C17.0353749,16.3791726 13.9121919,19.5023556 10.0595504,19.5023556 L9.879,19.499 L9.75117784,19.5023557 C9.23820799,19.5023557 8.74396507,19.4221762 8.28029783,19.2736659 C5.36353507,18.506173 3.19356816,15.8979764 3.08777095,12.7663498 L3.08372595,12.5265312 L3.083,9.634 L1.73349038,9.63443265 C0.826498515,9.63443265 0.0821979313,8.93786848 0.00636294425,8.05051446 L0,7.90094227 L0,4.20047113 C0,3.95501125 0.176875161,3.75086276 0.410124368,3.7085268 L0.5,3.70047113 L1.233,3.7 L1.23349038,0.5 C1.23349038,0.254540111 1.41036554,0.0503916296 1.64361475,0.00805566941 L1.73349038,0 L5.43396151,0 Z M9.75117784,10.867923 C7.64298747,10.867923 5.93396151,12.576949 5.93396151,14.6851393 C5.93396151,16.3802784 7.03890395,17.8173443 8.56784406,18.3153922 C8.98864033,18.4227897 9.42722431,18.486227 9.87836768,18.4996613 C11.9278787,18.4329808 13.5683942,16.7506415 13.5683942,14.6851393 C13.5683942,12.576949 11.8593682,10.867923 9.75117784,10.867923 Z M6.167,4.7 L5.444,4.699 L5.43396151,4.70047113 L1.72226949,4.70034771 L1,4.7 L1,7.90094227 C1,8.2351461 1.22351373,8.5171455 1.52921102,8.6056103 L1.63396008,8.62773675 L1.73349038,8.63443265 L5.43396151,8.63443265 C5.8052991,8.63443265 6.11218678,8.35848977 6.16075599,8.00047257 L6.16745189,7.90094227 L6.167,4.7 Z M18.502,5.933 L14.568,5.933 L14.5683942,7.90094227 C14.5683942,8.2351461 14.7919079,8.5171455 15.0976052,8.6056103 L15.2023542,8.62773675 L15.3018845,8.63443265 L17.7688653,8.63443265 C18.1402029,8.63443265 18.4470906,8.35848977 18.4956598,8.00047257 L18.5023557,7.90094227 L18.502,5.933 Z M17.268,3.466 L15.801,3.466 L15.801,4.933 L17.268,4.933 L17.268,3.466 Z M4.933,0.999 L2.233,0.999 L2.233,3.7 L4.933,3.7 L4.933,0.999 Z" id="Outline" fill="#353535"></path>
            </g>
        </g>
    </g>
</svg>